Coordinates
version=1
nRows=19
nColumns=36
inDegrees=yes

Units are S.I. units (second, meters, Newtons, ...)
If the header above contains a line with 'inDegrees', this indicates whether rotational values are in degrees (yes) or radians (no).

endheader
time	pelvis_tilt	pelvis_list	pelvis_rotation	pelvis_tx	pelvis_ty	pelvis_tz	hip_flexion_r	hip_adduction_r	hip_rotation_r	knee_angle_r	knee_angle_r_beta	ankle_angle_r	subtalar_angle_r	mtp_angle_r	hip_flexion_l	hip_adduction_l	hip_rotation_l	knee_angle_l	knee_angle_l_beta	ankle_angle_l	subtalar_angle_l	mtp_angle_l	lumbar_extension	lumbar_bending	lumbar_rotation	arm_flex_r	arm_add_r	arm_rot_r	elbow_flex_r	pro_sup_r	arm_flex_l	arm_add_l	arm_rot_l	elbow_flex_l	pro_sup_l
      2.12083330	    -11.70281177	     -5.77280570	     -0.27049321	      0.32725396	      0.91922880	     -0.11538951	     27.13878094	     -1.48966215	     -2.58529095	     39.64795157	      0.69198730	      1.41785966	     -2.18950501	     -7.49999987	     31.75570895	     -8.01889665	      5.15565901	     51.35842186	      0.89637356	      1.12763503	    -13.58898738	     -7.49999987	    -14.17019040	     -0.37673077	     -7.24546267	     17.02014981	    -33.59543938	    -39.41278207	     65.51089867	     55.59351892	    340.37870588	     -3.41726833	    262.44573823	     48.66464908	     81.84914797
      2.12500000	    -11.30972104	     -5.64950593	     -0.05178967	      0.33277478	      0.92870865	     -0.11722104	     25.26933639	     -1.58576021	     -2.61531868	     37.23621554	      0.64989456	     -0.36116640	     -1.66003082	     -7.49999987	     29.97130931	     -7.91563484	      4.80412835	     49.06683507	      0.85637783	     -0.59385050	    -13.36657144	     -7.49999987	    -13.77206739	     -0.60738113	     -7.59046355	     15.48222324	    -34.12912845	    -38.32306481	     66.18807056	     56.14118425	    339.66045974	     -2.69903121	    260.42312830	     52.41628595	     81.58751713
      2.12916670	    -11.30952485	     -5.42566209	      0.07369636	      0.33918289	      0.93909591	     -0.11791855	     23.57902152	     -1.76816379	     -2.72496922	     34.48520889	      0.60188044	     -2.58478942	     -0.81832952	     -7.49999987	     28.36795025	     -7.79127878	      4.27877757	     46.41348502	      0.81006813	     -2.27585127	    -12.38541166	     -7.49999987	    -12.62809586	     -0.96945735	     -8.52418721	     14.92320045	    -34.30005492	    -37.73811679	     67.30016265	     56.67364731	    338.33212375	     -2.60338780	    258.32066328	     53.65236612	     80.48233581
      2.13333330	    -11.16367954	     -5.35965377	      0.22016659	      0.34479041	      0.94413242	     -0.11688546	     21.83030044	     -1.70658575	     -2.85610144	     31.88736583	      0.55653952	     -4.56060192	     -0.27178239	     -7.49999987	     26.73073272	     -7.99424207	      3.81240464	     43.96324150	      0.76730331	     -3.76958475	    -11.69897890	     -7.49999987	    -11.69628273	     -1.32650429	     -8.96511944	     13.54473137	    -34.17525824	    -37.61286672	     68.64024172	     57.23089403	    337.22632909	     -2.87396537	    256.26864720	     54.93139648	     80.26701094
      2.13750000	    -11.18670401	     -5.21002381	      0.27024678	      0.34719482	      0.95374475	     -0.11714576	     20.44798613	     -1.73607704	     -3.03808917	     29.22668458	      0.51010188	     -6.88187904	      0.07092306	     -7.49999987	     25.32367251	     -7.98713316	      3.45090716	     41.45589903	      0.72354193	     -5.45315088	    -10.79736036	     -7.49999987	    -10.77028508	     -1.67905405	     -9.09599600	     12.42827152	    -34.08368668	    -37.11737951	     68.82354477	     57.61908807	    336.30863337	     -3.07091702	    255.44445253	     55.96116741	     80.07219280
      2.14166670	    -11.02562363	     -5.07300281	      0.33605719	      0.35222440	      0.96075531	     -0.11936713	     18.90182244	     -1.82603593	     -3.18938702	     26.70736949	      0.46613153	     -9.55790247	      0.15218397	     -7.49999987	     23.82798326	     -7.89942630	      3.11476388	     39.20311317	      0.68422340	     -7.34925785	    -10.10692612	     -7.49999987	     -9.90909059	     -1.84899465	     -8.94965757	     11.46689057	    -34.13389564	    -36.57649728	     67.94781432	     58.07747751	    335.70764781	     -3.69358380	    254.63582789	     56.32979299	     79.81145345
      2.14583330	    -11.02785953	     -4.89494071	      0.26778008	      0.35564180	      0.96996830	     -0.12097404	     17.68563479	     -2.01525485	     -3.62683032	     24.15654607	      0.42161126	    -12.51105298	      0.59435784	     -7.49999987	     22.41585648	     -7.72722177	      2.89466181	     36.66982952	      0.64000926	     -9.11705057	     -9.46535983	     -7.49999987	     -9.10530690	     -2.04856396	     -8.62933705	     10.73181754	    -34.51101037	    -35.89112983	     66.50849318	     58.61271008	    335.03421047	     -3.83238167	    254.22129709	     57.12677453	     79.53901003
      2.15000000	    -11.21102755	     -4.64399729	      0.20905157	      0.36075822	      0.97946041	     -0.12048913	     16.57053682	     -2.23459965	     -3.87785512	     21.36601970	      0.37290739	    -15.49835582	      1.12691505	     -7.49999987	     21.08828406	     -7.52514139	      2.66144197	     33.90052108	      0.59167571	    -11.31478082	     -8.61212573	     -7.49999987	     -7.94456143	     -2.38004456	     -9.75221196	     10.13453104	    -33.46412223	    -34.85160540	     66.54397639	     58.90423498	    333.69537823	     -3.13283034	    252.55623581	     57.67534458	     79.69458311
      2.15416670	    -10.96895468	     -4.46292908	      0.25903458	      0.36646768	      0.98803012	     -0.12263416	     14.87262114	     -2.38673021	     -3.97718828	     18.51445161	      0.32313814	    -18.53398873	      1.44226463	     -7.49999987	     19.20562423	     -7.34903645	      2.42288839	     31.01845428	      0.54137416	    -13.62445593	     -7.52641009	     -7.49999987	     -7.53857424	     -2.96748300	    -11.40564622	      5.82331464	    -30.91947860	    -35.57133516	     70.62931661	     59.66314480	    332.39404774	     -1.80957413	    250.07555555	     59.12271500	     79.17645218
      2.15833330	    -11.36516306	     -4.32007530	      0.21888893	      0.36898509	      0.99614079	     -0.12161809	     14.26347629	     -2.39781370	     -4.00873968	     16.12556938	      0.28144428	    -21.18646013	      1.98801578	     -7.49999987	     18.14255192	     -7.33807374	      2.17658352	     28.18035174	      0.49183992	    -16.20702787	     -6.26636253	     -7.49999987	     -7.06158435	     -2.85616528	     -7.56936874	     -9.09744621	    -26.01277890	    -47.31819984	     81.10687389	     61.74030131	    335.48796120	     -3.82798930	    250.40530033	     59.08745026	     79.31322890
      2.16250000	    -11.43780089	     -4.29918482	      0.27626578	      0.37149140	      1.00598513	     -0.11976364	     13.33861653	     -2.24634577	     -4.17188368	     13.82934096	      0.24136753	    -23.94236364	      2.11723131	     -7.49999987	     16.93939110	     -7.51734475	      2.05778435	     25.42429424	      0.44373764	    -18.86931034	     -5.01192899	     -7.49999987	     -6.76860563	     -2.48547358	     -5.38904596	    -19.56233785	    -19.36843192	    -53.66202021	     86.54593702	     63.10697593	    337.39019349	     -5.01602720	    249.65361943	     59.00381823	     79.92879574
      2.16666670	    -11.53987058	     -4.29466691	      0.27481807	      0.37450921	      1.01637108	     -0.11708840	     12.53223487	     -2.04394126	     -4.65790492	     11.72216648	      0.20459040	    -26.41672870	      1.92118705	     -7.49999987	     15.82571583	     -7.82460761	      2.05639334	     22.69886512	      0.39616993	    -22.05795957	     -3.65042866	     -7.49999987	     -6.40948994	     -2.01454202	     -3.78554603	    -26.71230437	    -13.55933844	    -58.35063896	     90.36682364	     67.01167477	    338.94774385	     -6.58760525	    248.12655065	     57.72987651	     86.05401901
      2.17083330	    -11.68548251	     -4.34408428	      0.21316138	      0.37730900	      1.02504729	     -0.11997155	     11.94518991	     -1.97491036	     -5.51249782	      9.94889036	      0.17364089	    -28.52962543	      1.35781750	     -7.49999987	     14.89582894	     -7.98200582	      2.15869338	     20.02125647	      0.34943685	    -24.92637290	     -2.12536362	     -7.49999987	     -6.26715949	     -1.39900926	     -2.07881615	    -31.86732503	     -9.32759821	    -61.31580014	     91.16514643	     67.90444563	    340.36415165	     -7.67493344	    246.29061923	     57.54409142	     86.55266802
      2.17500000	    -11.76222914	     -4.34753485	      0.25310251	      0.37930674	      1.03281642	     -0.12247705	     11.41738667	     -2.10684651	     -7.12644349	      8.43305968	      0.14718466	    -29.90990642	      0.66730493	     -7.49999987	     13.99861409	     -7.97466099	      2.16769508	     17.45353293	      0.30462162	    -27.61479948	     -0.46362125	     -7.49999987	     -6.22415714	     -0.98573183	      0.09340062	    -35.82817325	     -6.39593444	    -64.00330478	     90.04941651	     73.83227569	    341.85950256	     -8.66286298	    244.32448287	     58.19193397	     93.41647073
      2.17916670	    -11.70254588	     -4.42932537	      0.35428098	      0.38300552	      1.04209285	     -0.12347609	     10.80494627	     -2.03327294	     -8.66415026	      7.29820535	      0.12737771	    -30.74246360	      0.34656010	     -7.49999987	     12.91305331	     -8.03844023	      2.01567726	     14.81245896	      0.25852618	    -30.19228301	      0.92326053	     -7.49999987	     -6.13965094	     -0.70032922	      1.97872812	    -38.45495584	     -4.88503127	    -65.15662368	     87.39278484	     77.80240650	    342.76790004	     -9.34778068	    242.99047582	     58.71722640	     97.14798002
      2.18333330	    -11.66156094	     -4.34908875	      0.41485660	      0.38623269	      1.05256774	     -0.12660013	     10.19855936	     -2.13752993	    -10.16712101	      6.34505001	      0.11074201	    -31.00301703	      0.31909798	     -7.49999987	     11.88624934	     -7.88284489	      2.29751875	     12.40549216	      0.21651668	    -32.65864327	      2.04453705	     -7.49999987	     -5.98919674	     -0.43687703	      4.14429700	    -40.58029136	     -3.53050789	    -66.30110501	     85.21337541	     78.34120036	    344.26760258	    -10.13483046	    242.32435927	     58.69893742	     98.12789794
      2.18750000	    -11.63982379	     -4.33669948	      0.24677903	      0.38704629	      1.06281256	     -0.12682957	      9.70148840	     -2.05043884	    -11.15536678	      5.56974308	      0.09721036	    -31.13488283	      0.42749550	     -7.49999987	     10.97361446	     -7.86103796	      2.47492504	     10.22603798	      0.17847803	    -34.56382376	      2.90911322	     -7.49999987	     -5.86248387	     -0.57542142	      6.12460324	    -42.02495404	     -4.22281692	    -64.60246020	     80.71012804	     80.27848812	    345.49577193	    -10.90998927	    242.71524055	     59.27754100	     99.94839125
      2.19166670	    -11.61666356	     -4.26922368	      0.02282587	      0.39350485	      1.07261895	     -0.13098200	      9.14767007	     -2.12297582	    -11.88159386	      4.96993294	      0.08674169	    -31.53672042	      0.83322160	     -7.49999987	      9.81602416	     -7.70502766	      2.68534623	      8.14432096	      0.14214522	    -35.63728873	      3.40774013	     -7.49999987	     -5.36744314	     -0.63716646	      7.84766190	    -43.56564117	     -4.86152527	    -63.19122859	     76.87267607	     85.73709641	    347.44832931	    -11.77167784	    241.61654889	     60.08835537	    106.34151928
      2.19583330	    -11.57423727	     -4.13082085	     -0.05990038	      0.39540272	      1.08206430	     -0.13145572	      8.70935816	     -2.25567499	    -12.30965836	      4.42334423	      0.07720192	    -31.97347274	      1.42230001	     -7.49999987	      8.89461998	     -7.58668557	      2.32455854	      6.42203977	      0.11208574	    -36.27816223	      3.65461623	     -7.49999987	     -4.98195311	     -0.83806199	      8.57093299	    -44.28534387	     -6.15556753	    -60.27606300	     72.97909263	     86.91549296	    347.46571747	    -12.37838782	    243.61689486	     59.60904919	    107.15373063
